<svg width="528" height="528" viewBox="0 0 528 528" fill="none" xmlns="http://www.w3.org/2000/svg">
<circle cx="264" cy="264" r="264" fill="#0095FF"/>
<path fill-rule="evenodd" clip-rule="evenodd" d="M335.295 351.651C314.726 375.083 292.694 392.063 271.557 395.251C226.345 402.112 248.49 320.13 277.209 239.195C277.786 237.567 278.939 236.056 280.322 235.009C281.822 233.962 283.552 233.381 285.282 233.381C306.043 233.381 326.803 231.869 347.564 228.729C348.833 228.497 350.102 227.916 351.256 227.102C352.408 226.288 353.215 225.125 353.792 223.845C359.444 210.705 363.366 196.983 365.442 183.029C365.442 181.866 365.327 180.819 364.981 179.773C364.635 178.726 364.058 177.796 363.25 177.098C362.443 176.401 361.636 175.819 360.598 175.354C359.559 175.005 358.521 174.773 357.483 174.889C343.066 175.703 327.726 176.052 312.617 176.052C311.348 176.052 310.079 175.703 309.041 175.121C307.889 174.54 306.966 173.61 306.389 172.563C305.697 171.517 305.351 170.237 305.236 168.958C305.236 167.679 305.351 166.4 305.928 165.121C309.887 155.407 315.281 141.049 319.777 129.081L319.777 129.08L319.778 129.078C323.139 120.131 325.998 112.52 327.38 109.187C328.187 107.094 328.649 104.885 328.533 102.675C328.418 100.466 327.841 98.3726 326.688 96.512C325.65 94.6514 324.15 93.1397 322.306 91.9769C320.46 90.814 318.499 90.2326 316.308 90H315.154C301.545 91.9769 288.512 97.326 277.093 105.815L277.324 105.35C263.714 111.862 249.413 116.397 234.88 118.723C233.15 119.072 231.535 120.002 230.151 121.165C228.767 122.328 227.729 123.839 227.037 125.583C225.992 128.277 223.105 136.363 220.157 144.62C217.25 152.765 214.283 161.075 212.966 164.539C212.158 166.633 210.659 168.377 208.813 169.656C206.968 170.935 204.777 171.517 202.701 171.284C196.991 170.878 181.972 169.052 169.444 167.528L169.443 167.528L169.443 167.528C160.458 166.436 152.755 165.499 150.683 165.353C148.723 165.237 146.877 165.702 145.147 166.633C143.417 167.563 141.918 169.075 140.995 170.819C133.844 186.052 129.692 202.449 129 218.962C129.231 220.938 130.038 222.798 131.307 224.311C132.575 225.822 134.306 226.752 136.266 227.102C140.072 227.799 173.52 232.799 177.326 233.265C178.595 233.497 179.864 233.962 180.902 234.776C181.94 235.473 182.862 236.52 183.555 237.683C184.247 238.846 184.593 240.125 184.708 241.521C184.823 242.916 184.708 244.312 184.247 245.59C148.031 361.412 147.569 437.346 246.298 437.346C294.364 437.346 337.768 401.452 372.531 351.651H335.295Z" fill="white"/>
<circle cx="349" cy="351.651" r="50" fill="#FF5555"/>
</svg>
